HIERARCHY
ROOT root
{
	OFFSET 0.000000 0.000000 0.000000
	CHANNELS 6 Xposition Yposition Zposition Zrotation Yrotation Xrotation
	JOINT lhip
	{
		OFFSET 0.058581 -0.082280 -0.017664
		CHANNELS 3 Zrotation Yrotation Xrotation
		JOINT lknee
		{
			OFFSET 0.043451 -0.386469 0.008037
			CHANNELS 3 Zrotation Yrotation Xrotation
			JOINT lankle
			{
				OFFSET -0.014790 -0.426874 -0.037428
				CHANNELS 3 Zrotation Yrotation Xrotation
				JOINT ltoe
				{
					OFFSET 0.041054 -0.060286 0.122042
					CHANNELS 3 Zrotation Yrotation Xrotation
					End Site
					{
						OFFSET 0.000000 0.000000 0.000000
					}
				}
			}
		}
	}
	JOINT rhip
	{
		OFFSET -0.060310 -0.090513 -0.013543
		CHANNELS 3 Zrotation Yrotation Xrotation
		JOINT rknee
		{
			OFFSET -0.043257 -0.383688 -0.004843
			CHANNELS 3 Zrotation Yrotation Xrotation
			JOINT rankle
			{
				OFFSET 0.019056 -0.420046 -0.034562
				CHANNELS 3 Zrotation Yrotation Xrotation
				JOINT rtoe
				{
					OFFSET -0.034840 -0.062106 0.130323
					CHANNELS 3 Zrotation Yrotation Xrotation
					End Site
					{
						OFFSET 0.000000 0.000000 0.000000
					}
				}
			}
		}
	}
	JOINT lowerback
	{
		OFFSET 0.004439 0.124404 -0.038385
		CHANNELS 3 Zrotation Yrotation Xrotation
		JOINT upperback
		{
			OFFSET 0.004488 0.137956 0.026820
			CHANNELS 3 Zrotation Yrotation Xrotation
			JOINT chest
			{
				OFFSET -0.002265 0.056032 0.002855
				CHANNELS 3 Zrotation Yrotation Xrotation
				JOINT lowerneck
				{
					OFFSET -0.013390 0.211636 -0.033468
					CHANNELS 3 Zrotation Yrotation Xrotation
					JOINT upperneck
					{
						OFFSET 0.010113 0.088937 0.050410
						CHANNELS 3 Zrotation Yrotation Xrotation
						End Site
						{
							OFFSET 0.000000 0.000000 0.000000
						}
					}
				}
				JOINT lclavicle
				{
					OFFSET 0.071702 0.114000 -0.018898
					CHANNELS 3 Zrotation Yrotation Xrotation
					JOINT lshoulder
					{
						OFFSET 0.122921 0.045205 -0.019046
						CHANNELS 3 Zrotation Yrotation Xrotation
						JOINT lelbow
						{
							OFFSET 0.255332 -0.015649 -0.022946
							CHANNELS 3 Zrotation Yrotation Xrotation
							JOINT lwrist
							{
								OFFSET 0.265709 0.012698 -0.007375
								CHANNELS 3 Zrotation Yrotation Xrotation
								End Site
								{
									OFFSET 0.000000 0.000000 0.000000
								}
							}
						}
					}
				}
				JOINT rclavicle
				{
					OFFSET -0.082954 0.112472 -0.023707
					CHANNELS 3 Zrotation Yrotation Xrotation
					JOINT rshoulder
					{
						OFFSET -0.113228 0.046853 -0.008472
						CHANNELS 3 Zrotation Yrotation Xrotation
						JOINT relbow
						{
							OFFSET -0.260127 -0.014369 -0.031269
							CHANNELS 3 Zrotation Yrotation Xrotation
							JOINT rwrist
							{
								OFFSET -0.269108 0.006794 -0.006027
								CHANNELS 3 Zrotation Yrotation Xrotation
								End Site
								{
									OFFSET 0.000000 0.000000 0.000000
								}
							}
						}
					}
				}
			}
		}
	}
}
MOTION
Frames: 9
Frame Time: 0.033333
1.955710 0.841641 0.978825 -80.170060 3.306397 84.924240 1.039279 1.705463 7.322150 -2.697180 -10.578282 9.005993 4.745393 10.237546 -20.606849 0.000000 -0.000000 0.000000 -1.058471 -1.877742 -13.233885 1.660440 -4.803462 8.898357 5.834146 -7.193388 1.376156 0.000000 -0.000000 0.000000 -2.132097 1.022327 6.998970 2.341918 -2.400564 7.229231 2.138373 -1.972264 2.460341 2.587472 -0.404240 0.817631 5.776304 -1.037925 -9.076825 -21.370720 -3.822634 7.856143 -60.940705 -7.848104 11.186867 10.390042 -29.055690 11.707770 4.550021 -5.962819 -4.988347 20.609701 2.385504 5.646079 63.442095 0.740233 10.390953 -20.556955 30.720971 -3.485891 3.924229 5.179414 -9.114903 
1.955848 0.841102 0.978664 -80.059699 3.425106 85.068409 1.171965 1.582011 7.157827 -2.785098 -10.415118 9.014559 4.654644 10.144705 -20.696202 0.000000 -0.000000 0.000000 -0.908865 -2.013538 -13.420158 1.513793 -4.834162 8.972089 5.817609 -7.104232 1.441880 0.000000 -0.000000 0.000000 -1.905053 1.073562 6.849063 2.302687 -2.393383 7.169427 2.169115 -2.012647 2.596952 2.624564 -0.481913 0.786346 5.626997 -1.133886 -9.145666 -21.571175 -3.954646 7.945116 -60.803222 -7.854043 11.193537 10.396443 -29.215027 11.644837 4.515113 -5.968488 -5.147013 20.580081 2.387000 5.688210 63.354880 0.795777 10.385301 -20.752600 30.785352 -3.511962 3.950722 5.134126 -9.110780 
1.955886 0.840708 0.978642 -80.001131 3.435018 85.125657 1.128089 1.472223 7.101608 -2.816391 -10.494547 9.014390 4.861075 10.065897 -20.760271 0.000000 -0.000000 0.000000 -0.911502 -2.045974 -13.519732 1.469501 -4.866171 9.043989 5.866010 -7.091063 1.407661 0.000000 -0.000000 0.000000 -1.793887 1.040805 7.064037 2.216622 -2.361695 6.880167 2.128418 -1.998864 2.545190 2.605653 -0.321622 0.747608 5.610022 -0.985471 -9.134598 -21.593034 -3.759911 7.903954 -60.789112 -7.796553 11.182179 10.260177 -29.391340 11.906746 4.650550 -6.117108 -5.197347 20.518716 2.084935 5.484719 63.355800 0.817930 10.317080 -20.506160 30.953213 -3.225583 3.890151 5.252982 -9.193551 
1.955712 0.839930 0.978545 -79.754104 3.496787 85.121826 1.218121 1.561872 7.075240 -2.768888 -10.487996 9.069759 4.453052 9.949154 -20.763587 0.000000 -0.000000 0.000000 -0.952682 -2.204798 -13.440830 1.462890 -5.071672 9.051781 5.968157 -7.025543 1.343146 0.000000 -0.000000 0.000000 -1.689318 1.034310 7.185281 2.216825 -2.391066 6.806849 2.154386 -1.983426 2.619487 2.664186 -0.217322 0.580443 5.697365 -1.064547 -8.998109 -21.476341 -3.607449 7.823029 -61.021654 -8.055999 11.118652 10.054757 -29.831046 12.130248 4.579066 -6.456190 -5.240178 20.217609 1.182206 4.792720 63.439560 1.076184 9.769964 -19.711847 31.218917 -2.052315 4.296660 5.293572 -8.661807 
1.955903 0.839710 0.978543 -79.647700 3.520339 85.163936 1.233984 1.548818 6.965530 -2.785435 -10.548602 9.150587 4.429048 9.940385 -20.741006 0.000000 -0.000000 0.000000 -0.954114 -2.214634 -13.501170 1.418262 -5.097640 9.098836 5.954839 -7.047722 1.291702 0.000000 -0.000000 0.000000 -1.635155 0.992849 7.288552 2.212965 -2.417927 6.690661 2.144204 -2.001269 2.587765 2.666006 -0.281732 0.643063 5.715526 -1.059168 -8.985668 -21.472620 -3.571759 7.785558 -61.036008 -8.041737 11.140338 9.931253 -29.984531 12.284577 4.685156 -6.419179 -5.225479 20.167559 1.135369 4.750488 63.464741 1.056876 9.756169 -19.665236 31.284131 -2.012839 4.237789 5.252135 -8.637345 
1.956578 0.839175 0.978401 -79.429114 3.491623 85.310490 1.092741 1.432921 6.694641 -2.978725 -11.088998 9.289465 5.211045 9.487841 -21.139731 0.000000 -0.000000 0.000000 -1.038199 -2.241726 -13.778757 1.367509 -5.055863 9.326467 5.812150 -7.237071 1.054843 0.000000 -0.000000 0.000000 -1.559293 0.891788 7.413089 2.200690 -2.460974 6.449183 2.081189 -2.041425 2.648950 2.717978 -0.439423 0.724872 5.667072 -1.072816 -8.902215 -21.450901 -3.518354 7.684289 -61.114350 -8.163733 11.268545 9.798390 -30.217109 12.625540 4.770583 -6.332091 -5.548656 20.064197 1.088806 4.661735 63.555497 1.115671 9.792204 -19.616449 31.338628 -1.992124 4.201768 5.129309 -8.573267 
1.956259 0.838768 0.978486 -79.310865 3.583020 85.331856 1.220535 1.399864 6.771594 -3.018632 -11.019667 9.125398 5.276282 9.422737 -21.118124 0.000000 -0.000000 0.000000 -1.035944 -2.336589 -13.788229 1.467851 -5.199074 9.439115 5.722838 -7.218900 0.981429 0.000000 -0.000000 0.000000 -1.384662 0.854890 7.449641 2.200260 -2.535540 6.503643 2.030722 -2.038346 2.601050 2.649376 -0.393887 0.885162 5.639241 -0.988599 -8.929975 -21.390139 -3.524328 7.628222 -61.260421 -8.301088 11.297970 9.770394 -30.365898 12.710229 4.657127 -6.217115 -5.875004 19.973811 1.088191 4.680995 63.673662 1.134706 9.752778 -19.651496 31.415333 -1.924778 4.273993 5.093375 -8.562796 
1.956103 0.838417 0.978692 -79.202572 3.601263 85.392381 1.335301 1.365966 6.705256 -3.191772 -10.935395 9.183214 5.336797 9.391321 -21.281333 0.000000 -0.000000 0.000000 -1.094616 -2.247805 -13.934946 1.517770 -5.211212 9.736293 5.572834 -7.275588 0.601163 0.000000 -0.000000 0.000000 -1.284054 0.816831 7.605223 2.210063 -2.551412 6.373356 1.966879 -2.054502 2.586090 2.645982 -0.379388 0.907228 5.693568 -1.049391 -8.869658 -21.398753 -3.606923 7.705331 -61.291828 -8.462640 11.357904 9.783455 -30.550742 12.771347 4.867500 -6.319338 -6.103333 19.948407 1.139462 4.593379 63.761388 0.926553 9.858209 -19.735509 31.572230 -1.979955 4.060435 5.068502 -8.914535 
1.955273 0.837973 0.978641 -79.257447 3.471089 85.460487 1.202755 1.373841 6.879011 -3.178118 -10.908063 8.875193 5.352078 9.363652 -21.359419 0.000000 -0.000000 0.000000 -1.253247 -2.049329 -14.268735 1.500485 -5.244688 10.419921 5.316596 -7.257917 -0.138655 0.000000 -0.000000 0.000000 -1.292655 0.752249 7.690170 2.174739 -2.470516 6.358401 1.964266 -2.081075 2.543206 2.605203 -0.424017 0.769434 5.510287 -1.225035 -8.535761 -21.456450 -3.626999 7.709381 -61.416605 -8.545320 11.476537 10.037053 -30.713982 12.621368 4.877543 -6.863146 -6.073751 19.931942 1.145818 4.634122 63.847012 0.915590 9.915893 -19.833748 31.518112 -1.925176 4.156554 5.446869 -8.925864 
